<svg width="111" height="26" viewBox="0 0 111 26" fill="none" xmlns="http://www.w3.org/2000/svg">
<path d="M56.9003 24.48C55.3003 24.48 53.9349 24.1707 52.8043 23.552C51.6736 22.9333 50.8096 22.08 50.2123 20.992C49.6149 19.8827 49.3163 18.6347 49.3163 17.248C49.3163 15.8827 49.6576 14.656 50.3403 13.568C51.0229 12.48 51.9403 11.616 53.0923 10.976C54.2656 10.3147 55.5563 9.98401 56.9643 9.98401C58.8203 9.98401 60.3456 10.528 61.5403 11.616C62.7563 12.6827 63.5669 14.1973 63.9723 16.16L57.316 18.6281L55.316 16.6281L56.816 16.1281L59.9441 15.1281C59.7095 14.4881 59.3856 14.0053 58.8523 13.536C58.3403 13.0667 57.6149 12.832 56.6763 12.832C55.9296 12.832 55.2683 13.0133 54.6923 13.376C54.1163 13.7173 53.6576 14.208 53.3163 14.848C52.9963 15.4667 52.8363 16.2027 52.8363 17.056C52.8363 17.9307 53.0176 18.6987 53.3803 19.36C53.7429 20.0213 54.2336 20.5333 54.8523 20.896C55.4709 21.2373 56.1749 21.408 56.9643 21.408C57.5189 21.408 58.0523 21.312 58.5643 21.12C59.0763 20.928 59.5563 20.672 60.0043 20.352L61.6363 23.008C60.9323 23.456 60.1536 23.8187 59.3003 24.096C58.4683 24.352 57.6683 24.48 56.9003 24.48Z" fill="white"/>
<path d="M39.7788 4.64001H43.3948V10.592H46.9148V13.408H43.3948V24.128H39.7788V13.408H37.4748V10.592H39.7788V4.64001Z" fill="white"/>
<path d="M19.6288 17.216C19.6288 15.8507 19.9488 14.624 20.5888 13.536C21.2288 12.4267 22.1248 11.5627 23.2768 10.944C24.4501 10.304 25.7728 9.98401 27.2448 9.98401C28.7594 9.98401 30.0714 10.304 31.1808 10.944C32.3114 11.5627 33.1861 12.4267 33.8048 13.536C34.4234 14.624 34.7327 15.8507 34.7327 17.216C34.7327 18.5813 34.4234 19.8187 33.8048 20.928C33.1861 22.016 32.3114 22.88 31.1808 23.52C30.0714 24.16 28.7488 24.48 27.2128 24.48C25.7621 24.48 24.4608 24.192 23.3088 23.616C22.1568 23.0187 21.2501 22.176 20.5888 21.088C19.9488 20 19.6288 18.7093 19.6288 17.216ZM23.2448 17.248C23.2448 18.0373 23.4154 18.7627 23.7568 19.424C24.0981 20.064 24.5674 20.576 25.1648 20.96C25.7621 21.344 26.4234 21.536 27.1488 21.536C27.9381 21.536 28.6208 21.344 29.1968 20.96C29.7941 20.576 30.2528 20.064 30.5728 19.424C30.9141 18.7627 31.0848 18.0373 31.0848 17.248C31.0848 16.4373 30.9141 15.712 30.5728 15.072C30.2528 14.4107 29.7941 13.888 29.1968 13.504C28.6208 13.12 27.9381 12.928 27.1488 12.928C26.4021 12.928 25.7301 13.1307 25.1328 13.536C24.5568 13.92 24.0981 14.432 23.7568 15.072C23.4154 15.712 23.2448 16.4373 23.2448 17.248Z" fill="white"/>
<path d="M4.448 0.832031L10.6643 16.3049L16.448 0.832031H20.864L10.432 25.216L0 0.832031H4.448Z" fill="white"/>
<path d="M68.2347 24.128V0H68.2667L79.9385 16.5251L91.6908 0H91.7547V24.128H88.0427V10.592L79.8827 22.24H79.8187L71.8507 11.1281V24.128H68.2347Z" fill="#43E266"/>
<path d="M103.584 24.496C101.984 24.496 100.619 24.1867 99.488 23.568C98.3573 22.9493 97.4933 22.096 96.896 21.008C96.2987 19.8987 96 18.6507 96 17.264C96 15.8987 96.3413 14.672 97.024 13.584C97.7067 12.496 98.624 11.632 99.776 10.992C100.949 10.3307 102.24 10 103.648 10C105.504 10 107.029 10.544 108.224 11.632C109.44 12.6987 110.251 14.2133 110.656 16.176L104 18.644L102 16.644L103.5 16.144L106.628 15.144C106.393 14.504 106.069 14.0213 105.536 13.552C105.024 13.0827 104.299 12.848 103.36 12.848C102.613 12.848 101.952 13.0293 101.376 13.392C100.8 13.7333 100.341 14.224 100 14.864C99.68 15.4827 99.52 16.2187 99.52 17.072C99.52 17.9467 99.7013 18.7147 100.064 19.376C100.427 20.0373 100.917 20.5493 101.536 20.912C102.155 21.2533 102.859 21.424 103.648 21.424C104.203 21.424 104.736 21.328 105.248 21.136C105.76 20.944 106.24 20.688 106.688 20.368L108.32 23.024C107.616 23.472 106.837 23.8347 105.984 24.112C105.152 24.368 104.352 24.496 103.584 24.496Z" fill="#43E266"/>
</svg>
